<svg width="150" height="127" viewBox="0 0 150 127" fill="none" xmlns="http://www.w3.org/2000/svg">
<g clip-path="url(#clip0_1041_19699)">
<path d="M144.07 50.2608C145.762 49.5959 146.595 47.685 145.93 45.9929C145.265 44.3007 143.354 43.468 141.662 44.1329C139.969 44.7979 139.137 46.7087 139.802 48.4009C140.467 50.093 142.377 50.9258 144.07 50.2608Z" fill="url(#paint0_linear_1041_19699)"/>
<path d="M57.8961 126.43L50.761 123.307L53.8676 116.178L61.0128 119.278L57.8961 126.43Z" fill="url(#paint1_linear_1041_19699)"/>
<path d="M15.5077 102.147C15.5077 100.337 14.0404 98.8701 12.2304 98.8701C10.4204 98.8701 8.95312 100.337 8.95312 102.147C8.95312 103.957 10.4204 105.425 12.2304 105.425C14.0404 105.425 15.5077 103.957 15.5077 102.147Z" fill="#FE7122"/>
<path d="M97.3754 13.2689C97.345 13.5313 97.6353 13.7178 97.8698 13.5922L101.435 11.4901C101.53 11.4359 101.643 11.425 101.729 11.4746L105.481 13.2057C105.729 13.3255 105.993 13.1049 105.94 12.842L105.038 8.80537C105.013 8.69845 105.036 8.58894 105.12 8.50577L107.938 5.47863C108.124 5.27199 107.999 4.95382 107.728 4.94351L103.604 4.5606C103.5 4.55132 103.408 4.48727 103.354 4.39172L101.333 0.778212C101.207 0.543716 100.863 0.561825 100.744 0.809256L99.0932 4.59664C99.0493 4.69737 98.9594 4.76607 98.8525 4.79139L94.805 5.5805C94.5421 5.63372 94.4563 5.96793 94.6573 6.1394L97.7686 8.87367C97.8461 8.9434 97.8859 9.04463 97.8766 9.14846L97.3754 13.2689Z" fill="url(#paint2_linear_1041_19699)"/>
<path d="M5.59571 39.8989C6.34429 44.7499 5.83998 45.8807 1.79102 48.6294C6.64204 47.8808 7.77277 48.3851 10.5215 52.4341C9.77293 47.5831 10.2772 46.4523 14.3262 43.7036C9.48911 44.4467 8.34992 43.9618 5.59571 39.8989Z" fill="url(#paint3_linear_1041_19699)"/>
<path d="M35.1399 4.3839C33.3843 5.07376 32.5363 7.05127 33.2196 8.79027C33.9095 10.5458 35.887 11.3939 37.626 10.7105C39.365 10.0272 40.2296 8.04316 39.5462 6.30417C38.8564 4.54861 36.8789 3.70055 35.1399 4.3839Z" fill="url(#paint4_linear_1041_19699)"/>
<path d="M136.602 92.3545L146.434 93.9976L140.095 101.691L136.602 92.3545Z" fill="url(#paint5_linear_1041_19699)"/>
<path d="M76.8001 13.4683H76.0046C47.2293 13.4683 23.9023 36.9733 23.9023 65.9683C23.9023 94.9632 47.2293 118.468 76.0046 118.468H76.8001C105.575 118.468 128.902 94.9632 128.902 65.9683C128.902 36.9733 105.575 13.4683 76.8001 13.4683Z" fill="#F9FDFD"/>
<g clip-path="url(#clip1_1041_19699)">
<path d="M70.6023 71.0994L67.0897 66.0928L61.7802 62.2773C61.3903 63.3052 61.0004 64.3331 60.6106 65.361L63.9462 70.036L68.4756 73.2261L70.6022 72.9935L70.6023 71.0994ZM64.2223 77.4795L62.0956 74.113L58.2712 71.5284L57.1016 74.612L59.0437 77.8892L62.0956 79.6061H63.779L64.2223 77.4795Z" fill="#53BAC2"/>
<path d="M68.4777 73.2263L71.7345 77.7223L76.3428 81.0912L79.4264 79.9216L75.5441 75.0488L70.6043 71.0996L68.4777 73.2263ZM62.0977 79.6063L63.9148 82.501L67.0917 84.6003L70.1754 83.4307L67.6241 79.9217L64.2243 77.4796L62.0977 79.6063Z" fill="#00A1AA"/>
<path d="M73.7932 67.909L69.5399 62.277L63.5358 57.6514L61.7812 62.277L70.6033 71.0991L72.8362 70.2697L73.7932 67.909Z" fill="#8ED2D7"/>
<path d="M70.6055 71.0996L79.4275 79.9217L84.053 78.1671L79.4275 72.3421L73.7955 67.9097C72.7321 68.9729 71.6688 70.0362 70.6055 71.0996Z" fill="#53BAC2"/>
<path d="M72.732 62.5928H70.6055V60.4662C72.0233 59.0485 73.4411 57.6307 74.8588 56.2128C76.5628 54.5087 77.5015 52.2429 77.5015 49.8328C77.5015 47.4228 76.5629 45.157 74.8588 43.4528L76.9854 41.3262C81.6682 46.0088 81.7061 53.6188 76.9854 58.3395L74.327 60.9978L72.732 62.5928Z" fill="#00A1AA"/>
<path d="M81.2399 71.0994H79.1133V68.9727L83.3667 64.7194C85.6388 62.4472 88.6598 61.1958 91.8733 61.1958C95.0865 61.1958 98.1076 62.447 100.38 64.7194L98.2533 66.846C96.4943 65.0871 94.1838 64.2076 91.8733 64.2076C89.5627 64.2076 87.2523 65.0871 85.4933 66.846L81.2399 71.0994Z" fill="#53BAC2"/>
<path d="M65.6523 44.4717H68.6599V47.4792H65.6523V44.4717ZM68.6599 50.4868H71.6675V53.4944H68.6599V50.4868Z" fill="#8ED2D7"/>
<path d="M89.7109 68.5327H92.7185V71.5403H89.7109V68.5327ZM95.7261 77.5554H92.7185V74.5478H95.7261V77.5554Z" fill="#8ED2D7"/>
<path d="M95.7266 53.4946H98.7341V56.5022H95.7266V53.4946Z" fill="#8ED2D7"/>
<path d="M83.6992 41.4644H86.7068V44.4719H83.6992V41.4644Z" fill="#8ED2D7"/>
<path d="M89.9344 51.771L93.1231 49.6348L95.5606 46.1447C95.7858 44.9515 96.6454 44.0995 97.8292 43.8763L100.091 42.6673L100.642 41.0633L99.5787 40C98.1324 41.4462 96.5258 40.2172 94.2137 42.5295C92.363 44.38 92.704 46.0466 92.2849 47.0465C92.0447 47.62 91.4101 48.2545 90.8364 48.4951C90.1204 48.7952 89.1218 48.7022 87.9201 49.2719C86.7778 49.8136 85.7085 50.8825 85.1666 52.0254C84.3407 53.7673 84.9568 54.6217 83.7891 55.7897L84.8523 56.853L86.259 56.3016L87.6656 54.0398C87.8918 52.8407 88.737 51.9969 89.9344 51.771Z" fill="#53BAC2"/>
<path d="M75.9193 65.7829L64.7048 54.5684L63.5352 57.6519L73.7926 67.9095L75.7523 67.7425L75.9193 65.7829Z" fill="#53BAC2"/>
<path d="M57.1038 74.6124L51 90.7043L57.1038 85.9765L62.0979 79.6065L57.1038 74.6124ZM68.4779 73.2264L60.6129 65.3613L58.2735 71.5287L64.2245 77.4798L67.0919 76.0515L68.4779 73.2264Z" fill="#8ED2D7"/>
<path d="M93.8063 50.0216C95.0785 48.7494 95.2469 47.783 95.5559 46.1453L89.9297 51.7716C91.4723 51.4805 92.4918 51.3362 93.8063 50.0216ZM101.701 42.1272L100.637 41.064L97.8245 43.877C98.8483 43.6837 100.208 43.6198 101.701 42.1272ZM87.6609 54.0404C86.677 55.0243 85.8316 55.8698 84.8477 56.8536L85.9109 57.9169C87.3538 56.4741 87.4418 55.2015 87.6609 54.0404Z" fill="#00A1AA"/>
<path d="M84.0544 78.1673L87.138 76.9977L75.9235 65.7832L73.7969 67.9098L84.0544 78.1673Z" fill="#00A1AA"/>
<path d="M62.0979 79.6056L51 90.7035L67.0919 84.5997L62.0979 79.6056ZM64.2245 77.479L70.1756 83.43L76.343 81.0907L68.4779 73.2256L64.2245 77.479Z" fill="#53BAC2"/>
</g>
</g>
<defs>
<linearGradient id="paint0_linear_1041_19699" x1="141.718" y1="44.2618" x2="144.001" y2="50.0707" gradientUnits="userSpaceOnUse">
<stop stop-color="#CFE958"/>
<stop offset="0.138" stop-color="#C8E458"/>
<stop offset="0.339" stop-color="#B5D75A"/>
<stop offset="0.578" stop-color="#95C15C"/>
<stop offset="0.845" stop-color="#69A45E"/>
<stop offset="1" stop-color="#4C9060"/>
</linearGradient>
<linearGradient id="paint1_linear_1041_19699" x1="53.9332" y1="116.324" x2="57.2149" y2="124.675" gradientUnits="userSpaceOnUse">
<stop stop-color="#FF7F5C"/>
<stop offset="0.153" stop-color="#FF7957"/>
<stop offset="0.36" stop-color="#FF6849"/>
<stop offset="0.597" stop-color="#FF4B33"/>
<stop offset="0.855" stop-color="#FF2414"/>
<stop offset="0.996" stop-color="#FF0C00"/>
</linearGradient>
<linearGradient id="paint2_linear_1041_19699" x1="100.27" y1="3.13415" x2="104.815" y2="14.7001" gradientUnits="userSpaceOnUse">
<stop stop-color="#FF7F5C"/>
<stop offset="0.153" stop-color="#FF7957"/>
<stop offset="0.36" stop-color="#FF6849"/>
<stop offset="0.597" stop-color="#FF4B33"/>
<stop offset="0.855" stop-color="#FF2414"/>
<stop offset="0.996" stop-color="#FF0C00"/>
</linearGradient>
<linearGradient id="paint3_linear_1041_19699" x1="5.59529" y1="39.8991" x2="10.5262" y2="52.4473" gradientUnits="userSpaceOnUse">
<stop stop-color="#A1DDFF"/>
<stop offset="1" stop-color="#1C83FF"/>
</linearGradient>
<linearGradient id="paint4_linear_1041_19699" x1="37.5953" y1="3.70792" x2="35.7979" y2="9.37241" gradientUnits="userSpaceOnUse">
<stop stop-color="#FFD945"/>
<stop offset="0.214" stop-color="#FFD342"/>
<stop offset="0.495" stop-color="#FFC339"/>
<stop offset="0.812" stop-color="#FFA82A"/>
<stop offset="1" stop-color="#FF941F"/>
</linearGradient>
<linearGradient id="paint5_linear_1041_19699" x1="141.518" y1="92.3545" x2="141.518" y2="101.691" gradientUnits="userSpaceOnUse">
<stop stop-color="#41BCC4"/>
<stop offset="1" stop-color="#118188"/>
</linearGradient>
<clipPath id="clip0_1041_19699">
<rect width="149.735" height="126.76" fill="white" transform="translate(0.132812)"/>
</clipPath>
<clipPath id="clip1_1041_19699">
<rect width="50.704" height="50.704" fill="white" transform="translate(51 40.0005)"/>
</clipPath>
</defs>
</svg>
