<svg width="498" height="127" viewBox="0 0 498 127" fill="none" xmlns="http://www.w3.org/2000/svg">
<rect x="43.5762" y="118.135" width="16.2783" height="40.5296" rx="8.13914" transform="rotate(108 43.5762 118.135)" fill="#AB9FF2"/>
<rect x="54.0264" y="45.7029" width="14.3249" height="35.6661" rx="7.16245" transform="rotate(163 54.0264 45.7029)" fill="#ECAA04"/>
<rect x="187.205" y="9.82104" width="18.5573" height="46.2038" rx="9.27863" transform="rotate(-11 187.205 9.82104)" fill="#ECAA04"/>
<rect x="107.613" y="160.386" width="14.1621" height="35.2608" rx="7.08106" transform="rotate(176 107.613 160.386)" fill="#AB9FF2"/>
<rect x="97.8916" y="99.7419" width="15.9527" height="39.719" rx="7.97636" transform="rotate(-161 97.8916 99.7419)" fill="#F5841F"/>
<rect x="218.862" y="106.608" width="10.9065" height="27.1548" rx="5.45323" transform="rotate(-134 218.862 106.608)" fill="#1976D2"/>
<rect x="196.271" y="140.604" width="16.6039" height="41.3402" rx="8.30193" transform="rotate(143 196.271 140.604)" fill="#F5841F"/>
<rect width="16.2783" height="40.5296" rx="8.13914" transform="matrix(0.991576 -0.129527 -0.129527 -0.991576 405.855 42.2967)" fill="#1976D2"/>
<rect width="14.3249" height="35.6661" rx="7.16245" transform="matrix(0.462642 -0.886545 -0.886545 -0.462642 332.734 39.2985)" fill="#1976D2"/>
<rect width="14.1621" height="35.2608" rx="7.08106" transform="matrix(0.251355 -0.967895 -0.967895 -0.251355 435.657 112.991)" fill="#ECAA04"/>
<rect width="15.9527" height="39.719" rx="7.97636" transform="matrix(-0.146813 -0.989164 -0.989164 0.146813 377.821 92.3224)" fill="#F5841F"/>
<rect width="10.2553" height="25.5337" rx="5.12766" transform="matrix(-0.910379 0.413776 0.413776 0.910379 465.527 25.9893)" fill="#AB9FF2"/>
<rect width="16.1155" height="40.1243" rx="8.05775" transform="matrix(0.8147 -0.579882 -0.579882 -0.8147 484.864 147.756)" fill="#ECAA04"/>
</svg>
