<svg width="16" height="17" viewBox="0 0 16 17" fill="none" xmlns="http://www.w3.org/2000/svg">
<path d="M7.33325 6.49967C7.33325 6.32286 7.40349 6.15329 7.52851 6.02827C7.65354 5.90325 7.82311 5.83301 7.99992 5.83301C8.17673 5.83301 8.3463 5.90325 8.47132 6.02827C8.59635 6.15329 8.66659 6.32286 8.66659 6.49967C8.66659 6.67649 8.59635 6.84605 8.47132 6.97108C8.3463 7.0961 8.17673 7.16634 7.99992 7.16634C7.82311 7.16634 7.65354 7.0961 7.52851 6.97108C7.40349 6.84605 7.33325 6.67649 7.33325 6.49967Z" fill="#F5841F"/>
<path fill-rule="evenodd" clip-rule="evenodd" d="M6.59734 2.53352C6.76457 2.32156 6.97766 2.15026 7.2206 2.03248C7.46355 1.9147 7.73002 1.85352 8.00001 1.85352C8.26999 1.85352 8.53647 1.9147 8.77941 2.03248C9.02235 2.15026 9.23544 2.32156 9.40267 2.53352C9.50067 2.65752 9.65601 2.72152 9.81267 2.70352C10.0808 2.67185 10.3526 2.70135 10.6077 2.78981C10.8628 2.87827 11.0945 3.0234 11.2854 3.21427C11.4764 3.40515 11.6216 3.63682 11.7101 3.89187C11.7987 4.14692 11.8283 4.41872 11.7967 4.68685C11.7874 4.76397 11.7981 4.84218 11.8278 4.91398C11.8574 4.98577 11.905 5.04874 11.966 5.09685C12.178 5.26408 12.3493 5.47717 12.467 5.72012C12.5848 5.96306 12.646 6.22953 12.646 6.49952C12.646 6.7695 12.5848 7.03598 12.467 7.27892C12.3493 7.52186 12.178 7.73496 11.966 7.90218C11.905 7.95029 11.8574 8.01326 11.8278 8.08506C11.7981 8.15685 11.7874 8.23506 11.7967 8.31218C11.8284 8.58037 11.7989 8.85225 11.7104 9.10738C11.6219 9.36252 11.4767 9.59427 11.2857 9.78523C11.0948 9.97618 10.863 10.1214 10.6079 10.2099C10.3527 10.2984 10.0809 10.3279 9.81267 10.2962C9.73555 10.2869 9.65734 10.2976 9.58555 10.3273C9.51375 10.3569 9.45078 10.4045 9.40267 10.4655C9.2353 10.6773 9.02215 10.8483 8.77923 10.966C8.53631 11.0836 8.26991 11.1447 8.00001 11.1447C7.7301 11.1447 7.4637 11.0836 7.22078 10.966C6.97786 10.8483 6.76472 10.6773 6.59734 10.4655C6.54937 10.4045 6.48654 10.3568 6.41487 10.3271C6.34319 10.2973 6.26508 10.2864 6.18801 10.2955C5.91989 10.3272 5.64807 10.2977 5.39299 10.2092C5.13791 10.1208 4.9062 9.97564 4.71526 9.78476C4.52431 9.59389 4.37912 9.36222 4.29057 9.10717C4.20202 8.85212 4.17242 8.58032 4.20401 8.31218C4.2132 8.235 4.20239 8.15676 4.17262 8.08496C4.14285 8.01316 4.09511 7.95022 4.03401 7.90218C3.82205 7.73496 3.65074 7.52186 3.53297 7.27892C3.41519 7.03598 3.354 6.7695 3.354 6.49952C3.354 6.22953 3.41519 5.96306 3.53297 5.72012C3.65074 5.47717 3.82205 5.26408 4.03401 5.09685C4.09511 5.04882 4.14285 4.98588 4.17262 4.91408C4.20239 4.84228 4.2132 4.76403 4.20401 4.68685C4.17242 4.41872 4.20202 4.14692 4.29057 3.89187C4.37912 3.63682 4.52431 3.40515 4.71526 3.21427C4.9062 3.0234 5.13791 2.87827 5.39299 2.78981C5.64807 2.70135 5.91989 2.67185 6.18801 2.70352C6.26508 2.71259 6.34319 2.70172 6.41487 2.67196C6.48654 2.64219 6.54937 2.59452 6.59734 2.53352ZM8.00001 4.49952C7.46957 4.49952 6.96087 4.71023 6.58579 5.08531C6.21072 5.46038 6.00001 5.96909 6.00001 6.49952C6.00001 7.02995 6.21072 7.53866 6.58579 7.91373C6.96087 8.28881 7.46957 8.49952 8.00001 8.49952C8.53044 8.49952 9.03915 8.28881 9.41422 7.91373C9.78929 7.53866 10 7.02995 10 6.49952C10 5.96909 9.78929 5.46038 9.41422 5.08531C9.03915 4.71023 8.53044 4.49952 8.00001 4.49952Z" fill="#F5841F"/>
<path d="M3.5967 10.5361L2.71337 13.1661C2.67394 13.2836 2.66802 13.4097 2.69629 13.5304C2.72456 13.651 2.7859 13.7614 2.87341 13.8491C2.96093 13.9369 3.07116 13.9985 3.19174 14.027C3.31232 14.0556 3.43847 14.05 3.55604 14.0108L4.85604 13.5775L5.6187 14.7155C5.68764 14.8179 5.78367 14.8991 5.89608 14.9502C6.00849 15.0012 6.13287 15.0201 6.25536 15.0046C6.37784 14.9891 6.49362 14.9399 6.5898 14.8625C6.68597 14.7851 6.75875 14.6825 6.80004 14.5661L7.5467 12.4461C6.91843 12.3561 6.33307 12.0749 5.87004 11.6408C5.43487 11.626 5.00764 11.5201 4.61595 11.33C4.22425 11.1398 3.8768 10.8696 3.59604 10.5368L3.5967 10.5361ZM8.4427 12.4475L9.18937 14.5655C9.23058 14.682 9.30336 14.7847 9.39959 14.8623C9.49582 14.9398 9.61171 14.9891 9.73432 15.0046C9.85694 15.0201 9.98144 15.0012 10.0939 14.95C10.2064 14.8988 10.3025 14.8174 10.3714 14.7148L11.134 13.5768L12.434 14.0101C12.5515 14.0492 12.6776 14.0548 12.7981 14.0263C12.9186 13.9977 13.0287 13.9362 13.1162 13.8486C13.2037 13.7609 13.2651 13.6507 13.2934 13.5301C13.3218 13.4096 13.316 13.2836 13.2767 13.1661L12.3967 10.5461C12.1159 10.8763 11.7692 11.1443 11.3789 11.3328C10.9886 11.5213 10.5632 11.6262 10.13 11.6408C9.66448 12.0772 9.07534 12.359 8.44337 12.4475H8.4427Z" fill="#F5841F"/>
</svg>
