<svg width="128" height="128" viewBox="0 0 128 128" fill="none" xmlns="http://www.w3.org/2000/svg">
<path fill-rule="evenodd" clip-rule="evenodd" d="M26.6667 33.333C22.7768 33.333 19.0463 34.8782 16.2958 37.6288C13.5452 40.3793 12 44.1098 12 47.9997V95.9997C12 99.8895 13.5452 103.62 16.2958 106.371C19.0463 109.121 22.7768 110.666 26.6667 110.666H101.333C105.223 110.666 108.954 109.121 111.704 106.371C114.455 103.62 116 99.8895 116 95.9997V47.9997C116 44.1098 114.455 40.3793 111.704 37.6288C108.954 34.8782 105.223 33.333 101.333 33.333H26.6667ZM88 65.333C86.2319 65.333 84.5362 66.0354 83.286 67.2856C82.0357 68.5359 81.3333 70.2316 81.3333 71.9997C81.3333 73.7678 82.0357 75.4635 83.286 76.7137C84.5362 77.964 86.2319 78.6663 88 78.6663C89.7681 78.6663 91.4638 77.964 92.7141 76.7137C93.9643 75.4635 94.6667 73.7678 94.6667 71.9997C94.6667 70.2316 93.9643 68.5359 92.7141 67.2856C91.4638 66.0354 89.7681 65.333 88 65.333Z" fill="#C4C4C4"/>
<path d="M87.92 16.3675C89.4991 15.9467 91.1538 15.8944 92.7563 16.2145C94.3588 16.5346 95.8664 17.2187 97.1626 18.2139C98.4588 19.2092 99.509 20.4889 100.232 21.9544C100.955 23.4199 101.332 25.032 101.333 26.6662H48L87.92 16.3675Z" fill="#C4C4C4"/>
</svg>
