<svg width="20" height="20" viewBox="0 0 20 20" fill="none" xmlns="http://www.w3.org/2000/svg">
<path d="M9.26659 5.80044V7.96294C9.27227 8.22632 9.1983 8.48528 9.05437 8.70594C8.91044 8.92659 8.70325 9.09865 8.45992 9.1996C8.2983 9.26692 8.125 9.30175 7.94992 9.3021H5.78325C5.43371 9.30211 5.09832 9.16401 4.85015 8.91786C4.60197 8.67171 4.46111 8.33747 4.45825 7.98794V5.82544C4.45803 5.65149 4.49217 5.47921 4.55871 5.3185C4.62525 5.15778 4.72288 5.01179 4.846 4.88891C4.96911 4.76603 5.11529 4.66868 5.27613 4.60244C5.43697 4.5362 5.60931 4.50239 5.78325 4.50294H7.94992C8.29517 4.50503 8.62597 4.64181 8.87189 4.88415C9.11781 5.12649 9.25943 5.45525 9.26659 5.80044ZM9.26659 12.0463V14.2088C9.26703 14.5586 9.12864 14.8944 8.88179 15.1423C8.63494 15.3903 8.29979 15.5302 7.94992 15.5313H5.78325C5.43227 15.5313 5.09563 15.392 4.84722 15.1441C4.59881 14.8961 4.45892 14.5597 4.45825 14.2088V12.0463C4.46002 11.6964 4.60053 11.3615 4.84894 11.1151C5.09736 10.8688 5.43338 10.731 5.78325 10.7321H7.94992C8.29869 10.7321 8.63321 10.8705 8.88006 11.1169C9.12691 11.3632 9.26592 11.6975 9.26659 12.0463ZM15.5499 5.80044V7.96294C15.5549 8.31 15.423 8.64507 15.1829 8.89568C14.9427 9.14628 14.6135 9.29228 14.2666 9.3021H12.1083C11.7587 9.30211 11.4233 9.16401 11.1751 8.91786C10.927 8.67171 10.7861 8.33747 10.7833 7.98794V5.82544C10.783 5.65149 10.8172 5.47921 10.8837 5.3185C10.9503 5.15778 11.0479 5.01179 11.171 4.88891C11.2941 4.76603 11.4403 4.66868 11.6011 4.60244C11.762 4.5362 11.9343 4.50239 12.1083 4.50294H14.2666C14.606 4.51355 14.9284 4.65408 15.1672 4.89553C15.406 5.13698 15.543 5.46091 15.5499 5.80044ZM15.5499 12.0629V14.2254C15.5505 14.5696 15.4167 14.9005 15.177 15.1475C14.9373 15.3945 14.6106 15.5382 14.2666 15.5479H12.1083C11.7573 15.5479 11.4206 15.4087 11.1722 15.1607C10.9238 14.9128 10.7839 14.5764 10.7833 14.2254V12.0629C10.7852 11.7131 10.9258 11.3784 11.1742 11.132C11.4225 10.8857 11.7584 10.7479 12.1083 10.7488H14.2666C14.6089 10.7595 14.9337 10.9024 15.1729 11.1474C15.4122 11.3924 15.5473 11.7205 15.5499 12.0629Z" fill="#A1A1A1"/>
<path d="M17.7084 8.07949C17.5435 8.07734 17.3859 8.01091 17.2692 7.89435C17.1525 7.77778 17.0858 7.62027 17.0834 7.45533V4.88533C17.0894 4.62492 17.0422 4.36603 16.9448 4.12446C16.8474 3.88289 16.7017 3.66372 16.5168 3.48033C16.1507 3.11829 15.6567 2.91501 15.1418 2.91449H12.6001C12.4346 2.91449 12.2759 2.84887 12.1588 2.73202C12.0416 2.61517 11.9756 2.45663 11.9751 2.29116C11.9753 2.12554 12.0413 1.96679 12.1585 1.84976C12.2756 1.73273 12.4345 1.66699 12.6001 1.66699H15.1668C16.0112 1.68827 16.8134 2.04088 17.4001 2.64866C17.6969 2.94391 17.9322 3.29509 18.0924 3.68186C18.2526 4.06864 18.3345 4.48335 18.3334 4.90199V7.47199C18.3289 7.6347 18.261 7.78921 18.1443 7.90266C18.0276 8.01612 17.8712 8.07956 17.7084 8.07949ZM15.1418 18.3337H12.6001C12.4346 18.3337 12.2759 18.268 12.1588 18.1512C12.0416 18.0343 11.9756 17.8758 11.9751 17.7103C11.9753 17.5447 12.0413 17.386 12.1585 17.2689C12.2756 17.1519 12.4345 17.0862 12.6001 17.0862H15.1668C15.5511 17.0831 15.9258 16.9655 16.243 16.7485C16.5602 16.5315 16.8055 16.2249 16.9476 15.8678C17.0419 15.6313 17.0881 15.3783 17.0834 15.1237V12.5787C17.0837 12.413 17.1496 12.2543 17.2668 12.1373C17.384 12.0202 17.5428 11.9545 17.7084 11.9545C17.8741 11.9545 18.0329 12.0202 18.1501 12.1373C18.2673 12.2543 18.3332 12.413 18.3334 12.5787V15.1237C18.335 15.7547 18.1485 16.3718 17.7978 16.8963C17.4471 17.4209 16.948 17.829 16.3643 18.0687C15.9768 18.2278 15.5609 18.3103 15.1418 18.3087V18.3337ZM7.43344 18.3337H4.86678C4.44537 18.3334 4.02814 18.25 3.63894 18.0885C3.24973 17.9269 2.89617 17.6902 2.59844 17.392C2.30137 17.0941 2.06612 16.7404 1.90623 16.3513C1.74634 15.9621 1.66496 15.5452 1.66678 15.1245V12.5795C1.667 12.4139 1.73294 12.2551 1.85013 12.1381C1.96732 12.0211 2.12616 11.9553 2.29178 11.9553C2.45739 11.9553 2.61624 12.0211 2.73343 12.1381C2.85061 12.2551 2.91656 12.4139 2.91678 12.5795V15.1245C2.91876 15.6399 3.12525 16.1335 3.49087 16.4967C3.85649 16.86 4.35136 17.0633 4.86678 17.062H7.43344C7.59906 17.062 7.75791 17.1277 7.87509 17.2448C7.99228 17.3618 8.05822 17.5205 8.05844 17.6862C8.05856 17.7682 8.04245 17.8494 8.01106 17.9252C7.97967 18.001 7.93361 18.0698 7.87553 18.1278C7.81745 18.1857 7.74849 18.2316 7.67263 18.2627C7.59676 18.2939 7.51547 18.3098 7.43344 18.3095V18.3337ZM2.29178 8.07949C2.12683 8.07734 1.96923 8.01091 1.85251 7.89435C1.73579 7.77778 1.66915 7.62027 1.66678 7.45533V4.88533C1.66899 4.0455 2.00472 3.24095 2.60011 2.64866C3.20108 2.05321 4.01244 1.71849 4.85844 1.71699H7.42511C7.59073 1.71699 7.74957 1.78273 7.86676 1.89976C7.98394 2.01679 8.04989 2.17554 8.05011 2.34116C8.04967 2.50663 7.98363 2.66517 7.86646 2.78202C7.7493 2.89887 7.59058 2.96449 7.42511 2.96449H4.85844C4.34296 2.96294 3.84797 3.16618 3.48229 3.5295C3.11662 3.89283 2.91021 4.38651 2.90844 4.90199V7.47199C2.90394 7.63327 2.83724 7.78656 2.72231 7.89978C2.60737 8.01301 2.4531 8.0774 2.29178 8.07949Z" fill="#A1A1A1"/>
</svg>
