<svg width="20" height="20" viewBox="0 0 20 20" fill="none" xmlns="http://www.w3.org/2000/svg">
<path d="M15 18C14.3333 18 13.7667 17.7667 13.3 17.3C12.8333 16.8333 12.6 16.2667 12.6 15.6C12.6 15.52 12.62 15.3333 12.66 15.04L7.04 11.76C6.82667 11.96 6.58 12.1168 6.3 12.2304C6.02 12.344 5.72 12.4005 5.4 12.4C4.73333 12.4 4.16667 12.1667 3.7 11.7C3.23333 11.2333 3 10.6667 3 10C3 9.33333 3.23333 8.76667 3.7 8.3C4.16667 7.83333 4.73333 7.6 5.4 7.6C5.72 7.6 6.02 7.6568 6.3 7.7704C6.58 7.884 6.82667 8.04053 7.04 8.24L12.66 4.96C12.6333 4.86667 12.6168 4.7768 12.6104 4.6904C12.604 4.604 12.6005 4.5072 12.6 4.4C12.6 3.73333 12.8333 3.16667 13.3 2.7C13.7667 2.23333 14.3333 2 15 2C15.6667 2 16.2333 2.23333 16.7 2.7C17.1667 3.16667 17.4 3.73333 17.4 4.4C17.4 5.06667 17.1667 5.63333 16.7 6.1C16.2333 6.56667 15.6667 6.8 15 6.8C14.68 6.8 14.38 6.7432 14.1 6.6296C13.82 6.516 13.5733 6.35947 13.36 6.16L7.74 9.44C7.76667 9.53333 7.78347 9.62347 7.7904 9.7104C7.79733 9.79733 7.80053 9.89387 7.8 10C7.79947 10.1061 7.79627 10.2029 7.7904 10.2904C7.78453 10.3779 7.76773 10.4677 7.74 10.56L13.36 13.84C13.5733 13.64 13.82 13.4835 14.1 13.3704C14.38 13.2573 14.68 13.2005 15 13.2C15.6667 13.2 16.2333 13.4333 16.7 13.9C17.1667 14.3667 17.4 14.9333 17.4 15.6C17.4 16.2667 17.1667 16.8333 16.7 17.3C16.2333 17.7667 15.6667 18 15 18Z" fill="#1F1F1F"/>
</svg>
