<svg width="58" height="11" viewBox="0 0 58 11" fill="none" xmlns="http://www.w3.org/2000/svg">
<g clip-path="url(#clip0_300_1244)">
<path d="M8.74719 1.46002H1.16236C0.920291 1.46002 0.698395 1.66002 0.698395 1.92002V2.76002C0.698395 3.02002 0.920291 3.24002 1.16236 3.24002H8.74719C9.00943 3.24002 9.21115 3.02002 9.23132 2.76002V1.94002C9.23132 1.66002 9.00943 1.46002 8.74719 1.46002ZM8.74719 6.18002H1.16236C1.04133 6.18002 0.920292 6.24002 0.81943 6.32002C0.73874 6.40002 0.678223 6.52002 0.678223 6.66002V7.50002C0.678223 7.76002 0.900119 7.98002 1.14219 7.98002H8.72701C8.98925 7.98002 9.19098 7.78002 9.21115 7.50002V6.66002C9.23132 6.38002 9.00943 6.18002 8.74719 6.18002ZM5.43891 8.52002H1.16236C1.04133 8.52002 0.920292 8.56002 0.839602 8.66002C0.758912 8.74002 0.698395 8.86002 0.698395 9.00002V9.84002C0.698395 10.1 0.920291 10.32 1.16236 10.32H5.41874C5.68098 10.32 5.8827 10.1 5.8827 9.84002V8.98002C5.90288 8.74002 5.70115 8.52002 5.43891 8.52002ZM9.23132 3.82002H1.16236C1.04133 3.82002 0.920292 3.86002 0.839602 3.96002C0.758912 4.04002 0.698395 4.16002 0.698395 4.30002V5.14002C0.698395 5.40002 0.920291 5.62002 1.16236 5.62002H9.21115C9.47339 5.62002 9.67512 5.40002 9.67512 5.14002V4.30002C9.69529 4.02002 9.49356 3.82002 9.23132 3.82002Z" fill="#00C3F7"/>
<path d="M18.0466 3.36C17.8045 3.12 17.5423 2.94 17.2195 2.8C16.9169 2.66 16.574 2.6 16.2311 2.6C15.9083 2.6 15.5855 2.66 15.283 2.8C15.0812 2.9 14.8997 3.02 14.7585 3.18V3.04C14.7585 2.96 14.7181 2.9 14.6778 2.84C14.6173 2.78 14.5568 2.74 14.4761 2.74H13.4069C13.3262 2.74 13.2455 2.78 13.2052 2.84C13.1447 2.9 13.1245 2.96 13.1245 3.04V10.04C13.1245 10.12 13.1649 10.18 13.2052 10.24C13.2657 10.3 13.3262 10.32 13.4069 10.32H14.4761C14.5568 10.32 14.6173 10.3 14.6778 10.24C14.7383 10.18 14.7585 10.12 14.7585 10.04V7.64C14.9199 7.8 15.1014 7.94 15.3233 8C15.6057 8.1 15.9083 8.16 16.1907 8.16C16.5336 8.16 16.8766 8.1 17.1792 7.96C17.5019 7.84 17.7843 7.64 18.0062 7.4C18.2483 7.14 18.45 6.84 18.5711 6.52C18.7123 6.16 18.793 5.76 18.7728 5.38C18.7728 4.98 18.7123 4.6 18.5711 4.22C18.4904 3.92 18.2886 3.62 18.0466 3.36ZM17.0985 5.9C17.038 6.04 16.9573 6.18 16.8564 6.3C16.6345 6.54 16.3319 6.66 16.0092 6.66C15.8478 6.66 15.6864 6.62 15.5452 6.56C15.404 6.5 15.2628 6.4 15.1619 6.3C15.0611 6.18 14.9602 6.04 14.8997 5.9C14.7786 5.58 14.7786 5.24 14.8997 4.92C14.9602 4.78 15.0409 4.64 15.1619 4.52C15.283 4.4 15.404 4.32 15.5452 4.24C15.6864 4.18 15.8478 4.14 16.0092 4.14C16.1705 4.14 16.3319 4.18 16.4933 4.24C16.6345 4.3 16.7555 4.4 16.8766 4.5C16.9774 4.62 17.0581 4.74 17.1186 4.9C17.2195 5.22 17.2195 5.58 17.0985 5.9ZM24.6026 2.76H23.5335C23.4528 2.76 23.3923 2.8 23.3317 2.84C23.2712 2.9 23.2511 2.98 23.2511 3.06V3.18C23.1099 3.02 22.9485 2.9 22.7669 2.82C22.4845 2.68 22.1618 2.62 21.839 2.62C21.1531 2.62 20.4874 2.9 20.0033 3.38C19.7612 3.64 19.5595 3.94 19.4183 4.26C19.2569 4.62 19.1964 5.02 19.1964 5.42C19.1964 5.82 19.2569 6.22 19.4183 6.58C19.5595 6.9 19.7612 7.2 20.0033 7.46C20.4874 7.94 21.133 8.22 21.8188 8.22C22.1416 8.22 22.4643 8.16 22.7468 8.02C22.9283 7.92 23.1099 7.8 23.2309 7.66V7.8C23.2309 7.88 23.2712 7.94 23.3116 8C23.3721 8.04 23.4326 8.08 23.5133 8.08H24.5824C24.6631 8.08 24.7236 8.04 24.7842 8C24.8447 7.94 24.8649 7.88 24.8649 7.8V3.06C24.8649 2.98 24.8447 2.92 24.7842 2.86C24.7438 2.78 24.6833 2.76 24.6026 2.76ZM23.1502 5.88C23.0897 6.02 23.009 6.16 22.9081 6.28C22.8073 6.38 22.6661 6.48 22.5249 6.56C22.2223 6.7 21.8793 6.7 21.5768 6.56C21.4355 6.5 21.2943 6.4 21.1935 6.28C21.0926 6.16 20.9918 6.02 20.9514 5.88C20.8304 5.56 20.8304 5.22 20.9514 4.9C21.0119 4.76 21.0926 4.62 21.1935 4.5C21.2943 4.38 21.4355 4.3 21.5768 4.22C21.8793 4.08 22.2223 4.08 22.5249 4.22C22.6661 4.28 22.7871 4.38 22.9081 4.48C23.009 4.6 23.0897 4.72 23.1502 4.88C23.2914 5.22 23.2914 5.58 23.1502 5.88ZM35.2335 5.26C35.0721 5.12 34.9107 5.02 34.709 4.94C34.5073 4.86 34.3055 4.8 34.0836 4.76L33.2767 4.6C33.075 4.56 32.9136 4.5 32.833 4.44C32.7724 4.4 32.7321 4.32 32.7321 4.24C32.7321 4.16 32.7724 4.08 32.8935 4.02C33.0347 3.94 33.1961 3.9 33.3373 3.92C33.539 3.92 33.7609 3.96 33.9424 4.04C34.124 4.12 34.3055 4.22 34.4669 4.32C34.709 4.46 34.9107 4.44 35.0519 4.28L35.4352 3.84C35.5159 3.76 35.5562 3.66 35.5562 3.56C35.5562 3.46 35.4957 3.34 35.415 3.28C35.2536 3.14 34.9914 2.98 34.6283 2.84C34.2854 2.7 33.8416 2.62 33.3171 2.62C32.9943 2.62 32.6917 2.66 32.3892 2.76C32.1269 2.84 31.8849 2.96 31.6831 3.12C31.4814 3.26 31.3402 3.46 31.2192 3.68C31.1183 3.9 31.0578 4.12 31.0578 4.36C31.0578 4.8 31.199 5.16 31.4612 5.42C31.7235 5.68 32.0664 5.86 32.5102 5.94L33.3574 6.12C33.539 6.16 33.7205 6.2 33.9021 6.28C34.003 6.32 34.0635 6.4 34.0635 6.52C34.0635 6.62 34.0231 6.7 33.9021 6.78C33.8012 6.86 33.6197 6.9 33.3978 6.9C33.1759 6.9 32.9338 6.86 32.7321 6.76C32.5304 6.66 32.3488 6.54 32.1874 6.4C32.1067 6.34 32.0261 6.3 31.9454 6.26C31.8445 6.24 31.7235 6.26 31.6024 6.36L31.1385 6.72C31.0174 6.82 30.9367 6.98 30.9771 7.12C30.9973 7.28 31.1385 7.42 31.3604 7.6C31.9454 8 32.6514 8.2 33.3574 8.18C33.6802 8.18 34.0231 8.14 34.3257 8.04C34.6081 7.96 34.8502 7.84 35.0721 7.66C35.2738 7.5 35.4554 7.3 35.5562 7.08C35.6773 6.86 35.7176 6.62 35.7176 6.36C35.7176 6.14 35.6773 5.92 35.5764 5.7C35.4957 5.56 35.3747 5.4 35.2335 5.26ZM39.8731 6.54C39.8328 6.46 39.7319 6.4 39.6311 6.38C39.5302 6.38 39.4293 6.42 39.3486 6.46C39.2276 6.54 39.0662 6.6 38.9048 6.6C38.8645 6.6 38.804 6.6 38.7435 6.58C38.683 6.58 38.6426 6.54 38.6023 6.5C38.5619 6.46 38.5216 6.4 38.4812 6.34C38.4409 6.26 38.4207 6.16 38.4409 6.06V4.14H39.8328C39.9135 4.14 39.9942 4.1 40.0547 4.04C40.1152 3.98 40.1555 3.92 40.1555 3.84V3.02C40.1555 2.94 40.1152 2.86 40.0547 2.82C39.9942 2.76 39.9336 2.74 39.853 2.74H38.4611V1.44C38.4611 1.36 38.4409 1.28 38.3804 1.24C38.3198 1.18 38.2593 1.16 38.1786 1.16H37.1095C37.0288 1.16 36.9481 1.18 36.9078 1.24C36.8473 1.3 36.8271 1.38 36.8271 1.44V2.76H36.2219C36.1412 2.76 36.0605 2.8 36.0202 2.86C35.9597 2.92 35.9395 2.98 35.9395 3.06V3.88C35.9395 3.96 35.9597 4.02 36.0202 4.08C36.0605 4.14 36.1412 4.18 36.2219 4.18H36.8271V6.46C36.8271 6.74 36.8674 7 36.9885 7.24C37.0893 7.44 37.2305 7.62 37.3919 7.76C37.5533 7.9 37.755 8 37.9769 8.06C38.1988 8.12 38.4207 8.16 38.6426 8.16C38.9452 8.16 39.2276 8.12 39.51 8.02C39.7723 7.94 40.0143 7.78 40.1959 7.6C40.3169 7.48 40.3371 7.28 40.2362 7.14L39.8731 6.54ZM45.7231 2.76H44.654C44.5733 2.76 44.5128 2.8 44.4523 2.84C44.3917 2.9 44.3716 2.98 44.3716 3.06V3.18C44.2304 3.02 44.069 2.9 43.8874 2.82C43.605 2.68 43.2823 2.62 42.9595 2.62C42.2736 2.62 41.6281 2.9 41.144 3.38C40.9019 3.64 40.7002 3.94 40.559 4.26C40.3976 4.62 40.3371 5.02 40.3371 5.4C40.3371 5.8 40.3976 6.18 40.559 6.56C40.7002 6.88 40.9019 7.18 41.144 7.44C41.6281 7.92 42.2736 8.2 42.9595 8.2C43.2823 8.2 43.605 8.14 43.8874 8C44.069 7.9 44.2505 7.78 44.3716 7.64V7.78C44.3716 7.86 44.3917 7.92 44.4523 7.98C44.5128 8.04 44.5733 8.06 44.654 8.06H45.7231C45.8845 8.06 46.0055 7.94 46.0055 7.78V3.06C46.0055 2.98 45.9854 2.92 45.9248 2.86C45.8643 2.78 45.8038 2.76 45.7231 2.76ZM44.2707 5.88C44.2102 6.02 44.1295 6.16 44.0286 6.28C43.9076 6.38 43.7866 6.48 43.6454 6.56C43.5042 6.62 43.3226 6.66 43.1612 6.66C42.9998 6.66 42.8385 6.62 42.6973 6.56C42.5561 6.5 42.4148 6.4 42.314 6.28C42.2131 6.16 42.1123 6.02 42.0719 5.88C41.9509 5.56 41.9509 5.22 42.0719 4.9C42.1324 4.76 42.2131 4.62 42.314 4.5C42.435 4.38 42.5561 4.3 42.6973 4.22C42.8385 4.16 42.9998 4.12 43.1612 4.12C43.3226 4.12 43.484 4.16 43.6454 4.22C43.7866 4.28 43.9076 4.38 44.0286 4.48C44.1295 4.6 44.2304 4.72 44.2707 4.88C44.4119 5.22 44.4119 5.58 44.2707 5.88ZM51.5731 6.46L50.9679 6C50.8469 5.9 50.7461 5.88 50.6452 5.92C50.5645 5.96 50.4838 6.02 50.4233 6.08C50.2821 6.24 50.1409 6.38 49.9593 6.5C49.7778 6.6 49.5761 6.66 49.3542 6.64C49.1121 6.64 48.8902 6.58 48.6885 6.44C48.4867 6.3 48.3455 6.1 48.2648 5.88C48.2043 5.72 48.1842 5.56 48.1842 5.4C48.1842 5.24 48.2043 5.06 48.2648 4.9C48.3254 4.76 48.4061 4.62 48.5069 4.5C48.6279 4.38 48.749 4.3 48.8902 4.24C49.0314 4.18 49.213 4.14 49.3743 4.14C49.5761 4.14 49.7979 4.18 49.9593 4.28C50.1409 4.4 50.2821 4.54 50.4233 4.7C50.4838 4.76 50.5645 4.82 50.6452 4.86C50.7461 4.9 50.8469 4.88 50.9679 4.78L51.5731 4.32C51.6538 4.26 51.7143 4.2 51.7345 4.12C51.7748 4.02 51.7547 3.92 51.7143 3.84C51.4723 3.48 51.1495 3.18 50.7662 2.96C50.3628 2.74 49.8786 2.62 49.334 2.62C48.9507 2.62 48.5674 2.7 48.2245 2.84C47.8816 2.98 47.579 3.18 47.3167 3.44C47.0545 3.7 46.8528 4 46.7116 4.32C46.4292 5.02 46.4292 5.82 46.7116 6.52C46.8528 6.86 47.0545 7.16 47.3167 7.4C47.8614 7.92 48.5674 8.2 49.334 8.2C49.8786 8.2 50.3628 8.08 50.7662 7.86C51.1495 7.64 51.4723 7.34 51.7143 6.98C51.7748 6.9 51.7748 6.8 51.7345 6.7C51.6942 6.6 51.6336 6.52 51.5731 6.46ZM57.2416 7.56L55.5673 5.1L56.9995 3.22C57.06 3.14 57.0802 3.02 57.06 2.92C57.0398 2.84 56.9592 2.76 56.7978 2.76H55.6681C55.6076 2.76 55.5471 2.78 55.4866 2.8C55.4059 2.84 55.3655 2.88 55.3252 2.96L54.1754 4.56H53.8929V0.78C53.8929 0.7 53.8728 0.64 53.8123 0.58C53.7517 0.52 53.6912 0.5 53.6105 0.5H52.5414C52.4607 0.5 52.4002 0.52 52.3397 0.58C52.2792 0.64 52.259 0.7 52.259 0.78V7.74C52.259 7.82 52.2993 7.9 52.3397 7.94C52.4002 8 52.4607 8.02 52.5414 8.02H53.6105C53.6912 8.02 53.7517 7.98 53.8123 7.94C53.8728 7.88 53.8929 7.82 53.8929 7.74V5.9H54.1955L55.4462 7.82C55.5269 7.96 55.6681 8.04 55.8093 8.04H56.9995C57.181 8.04 57.2617 7.96 57.2819 7.88C57.3223 7.78 57.3021 7.66 57.2416 7.56ZM30.6543 2.76H29.4642C29.3835 2.76 29.2826 2.78 29.2221 2.86C29.1616 2.92 29.1212 2.98 29.1212 3.06L28.2336 6.3H28.0117L27.0636 3.04C27.0435 2.98 27.0233 2.9 26.9628 2.84C26.9023 2.78 26.8216 2.74 26.7409 2.74H25.5104C25.349 2.74 25.2481 2.8 25.2078 2.9C25.1674 3 25.1674 3.1 25.2078 3.18L26.7207 7.76C26.7409 7.82 26.7812 7.9 26.8418 7.94C26.9023 8 26.983 8.02 27.0636 8.02H27.7092L27.6486 8.16L27.5074 8.58C27.4671 8.7 27.3864 8.82 27.2654 8.92C27.1645 9 27.0435 9.04 26.9023 9.04C26.8014 9.04 26.6804 9.02 26.5795 8.98C26.4786 8.94 26.3778 8.88 26.2971 8.82C26.2164 8.76 26.1155 8.74 26.0349 8.74H26.0147C25.8936 8.74 25.7928 8.8 25.7524 8.9L25.3692 9.46C25.2078 9.7 25.3086 9.86 25.4095 9.94C25.6112 10.12 25.8533 10.26 26.1155 10.36C26.398 10.46 26.7005 10.5 27.0233 10.5C27.568 10.5 28.0319 10.36 28.3749 10.06C28.738 9.74 29.0002 9.32 29.1414 8.86L30.8964 3.2C30.9367 3.1 30.9367 3 30.8964 2.9C30.8964 2.82 30.8157 2.76 30.6543 2.76Z" fill="#011B33"/>
</g>
<defs>
<clipPath id="clip0_300_1244">
<rect width="56.6038" height="10" fill="white" transform="translate(0.698242 0.5)"/>
</clipPath>
</defs>
</svg>
