<svg width="380" height="148" viewBox="0 0 380 148" fill="none" xmlns="http://www.w3.org/2000/svg">
<path fill-rule="evenodd" clip-rule="evenodd" d="M178.614 146.487C173.176 146.487 169.43 145.127 167.374 142.408C165.803 140.261 164.852 137.742 164.522 134.85C160.491 137.98 156.367 140.599 152.15 142.707C147.177 145.227 142.17 146.487 137.13 146.487C131.758 146.487 127.514 145.127 124.397 142.408C121.347 139.623 119.822 135.313 119.822 129.477C119.822 125.432 120.551 121.42 122.01 117.441C123.535 113.395 125.193 109.615 126.984 106.101C128.841 102.52 130.299 99.4029 131.361 96.7503C131.692 95.8882 132.256 94.5619 133.052 92.7714C133.914 90.9808 134.809 89.1572 135.737 87.3003L139.119 80.3372C140.247 78.4804 141.54 77.1541 142.999 76.3583C144.458 75.5625 145.95 75.1646 147.475 75.1646C149.995 75.1646 152.15 75.9936 153.941 77.6515C155.798 79.243 156.726 81.2988 156.726 83.8188C156.66 84.4156 156.56 85.0125 156.428 85.6093C156.361 86.2061 156.162 86.803 155.831 87.3998C154.372 90.0524 153.112 92.5393 152.051 94.8603C150.99 97.115 149.896 99.4029 148.768 101.724C147.84 103.647 146.679 106.001 145.287 108.787C143.894 111.572 142.667 114.39 141.606 117.242C140.545 120.027 140.015 122.514 140.015 124.702C140.015 126.493 140.446 127.686 141.308 128.283C142.236 128.814 143.529 129.079 145.187 129.079C147.84 129.079 150.758 128.25 153.941 126.592C157.19 124.934 160.274 122.879 163.192 120.425C164.785 119.144 166.315 117.853 167.781 116.554C168.25 115.345 168.744 114.181 169.264 113.064C171.585 107.891 173.939 102.752 176.326 97.6455C178.714 92.5392 180.902 87.864 182.892 83.6198L213.032 19.4596C214.557 16.1439 216.845 13.9886 219.896 12.9939C222.946 11.9992 225.731 12.0986 228.251 13.2923C230.838 14.4197 232.131 16.5086 232.131 19.5591C232.131 20.7528 231.832 22.0128 231.236 23.3391C230.705 24.6654 230.009 26.0912 229.147 27.6164C226.759 32.1259 223.709 38.0611 219.995 45.4221C216.348 52.7831 212.303 61.0726 207.859 70.2904C203.018 80.4367 198.94 88.9582 195.624 95.855C192.375 102.685 189.324 109.151 186.473 115.252C185.743 116.778 185.014 118.568 184.284 120.624C183.621 122.613 183.29 124.404 183.29 125.995C183.29 128.184 184.251 129.278 186.174 129.278C188.296 129.278 191.115 128.416 194.629 126.692C198.211 124.901 201.924 122.68 205.77 120.027C209.683 117.441 217.11 111.97 217.11 111.97L218.836 110.566C220.792 106.236 222.771 101.929 224.774 97.6455C227.161 92.5392 229.349 87.864 231.339 83.6198L261.479 19.4596C263.005 16.1439 265.292 13.9886 268.343 12.9939C271.393 11.9992 274.179 12.0986 276.699 13.2923C279.285 14.4197 280.578 16.5086 280.578 19.5591C280.578 20.7528 280.28 22.0128 279.683 23.3391C279.152 24.6654 278.456 26.0912 277.594 27.6164C275.207 32.1259 272.156 38.0611 268.442 45.4221C264.795 52.7831 260.75 61.0726 256.307 70.2904C251.466 80.4367 247.387 88.9582 244.071 95.855C240.822 102.685 237.771 109.151 234.92 115.252C234.19 116.778 233.461 118.568 232.732 120.624C232.068 122.613 231.737 124.404 231.737 125.995C231.737 128.184 232.698 129.278 234.622 129.278C236.744 129.278 239.562 128.416 243.077 126.692C246.658 124.901 250.371 122.68 254.218 120.027C258.13 117.441 261.91 114.755 265.558 111.97C266.35 111.35 267.129 110.736 267.896 110.126C269.758 104.084 272.638 98.1379 276.539 92.2872C280.518 86.1862 285.591 81.1131 291.758 77.0679C297.992 73.0226 305.187 71 313.344 71C316.262 71 318.815 71.3647 321.003 72.0942C323.192 72.8237 325.049 73.6195 326.574 74.4816C327.436 75.0121 328.232 75.5758 328.961 76.1726C329.757 76.7031 330.486 77.2999 331.15 77.9631L334.631 76.2721C335.626 75.8079 336.654 75.41 337.715 75.0784C338.842 74.6805 339.804 74.4816 340.6 74.4816C343.12 74.4816 345.175 75.1779 346.767 76.5705C348.358 77.9631 349.154 79.4884 349.154 81.1463C349.154 81.6768 349.121 82.0415 349.055 82.2404C348.591 84.0973 347.728 86.6504 346.468 89.8999C345.275 93.1493 343.982 96.7635 342.589 100.742C341.196 104.589 340.003 108.302 339.008 111.883C338.08 115.464 337.615 118.416 337.615 120.737C337.615 122.726 337.947 124.384 338.61 125.71C339.273 126.97 340.401 127.6 341.992 127.6C343.915 127.6 346.502 126.506 349.751 124.318C353.001 122.063 356.349 119.41 359.798 116.36C361.655 114.702 363.578 112.944 365.567 111.088C367.557 109.165 369.579 107.142 371.635 105.02C372.696 104.158 373.724 103.727 374.719 103.727C376.045 103.727 377.139 104.39 378.001 105.716C378.93 106.976 379.394 108.402 379.394 109.993C379.394 111.85 378.764 113.409 377.504 114.669C374.851 117.122 372.133 119.742 369.347 122.527C366.562 125.312 362.716 128.728 357.808 132.773C353.432 136.354 348.922 139.437 344.28 142.024C339.638 144.544 335.46 145.804 331.746 145.804C327.104 145.804 323.722 144.013 321.6 140.432C319.478 136.785 318.417 132.905 318.417 128.794C318.417 125.81 318.848 123.157 319.71 120.836C316.991 124.483 313.775 128.263 310.061 132.176C306.348 136.022 302.336 139.272 298.025 141.924C293.715 144.511 289.305 145.804 284.795 145.804C282.54 145.804 279.855 145.174 276.738 143.914C273.621 142.654 270.869 140.565 268.482 137.647C266.546 135.214 265.418 132.089 265.096 128.272L264.961 128.383C260.717 131.831 256.439 134.915 252.129 137.634C247.885 140.286 243.64 142.408 239.396 144C235.152 145.658 231.04 146.487 227.062 146.487C221.624 146.487 217.877 145.127 215.821 142.408C213.832 139.689 212.837 136.374 212.837 132.461C212.837 132.061 212.844 131.659 212.858 131.256C209.816 133.568 206.757 135.694 203.682 137.634C199.437 140.286 195.193 142.408 190.949 144C186.705 145.658 182.593 146.487 178.614 146.487ZM300.711 124.218C297.528 126.937 294.875 128.297 292.753 128.297C289.106 128.297 286.785 126.904 285.79 124.119C284.861 121.333 284.397 118.648 284.397 116.061C284.397 111.618 285.558 107.341 287.879 103.229C290.2 99.0514 293.184 95.6362 296.831 92.9836C300.545 90.3309 304.458 89.0046 308.569 89.0046C310.89 89.0046 313.51 89.7673 316.428 91.2925C319.345 92.7514 320.804 94.7409 320.804 97.2609C320.804 98.3883 319.843 100.577 317.92 103.826C315.997 107.076 313.377 110.69 310.061 114.669C307.077 118.316 303.96 121.499 300.711 124.218ZM152.847 63.1284C154.505 64.3884 157.389 65.0184 161.501 65.0184C165.944 65.0184 169.127 63.4931 171.05 60.4426C173.04 57.3921 174.035 54.6068 174.035 52.0869C174.035 49.8321 173.272 47.9753 171.747 46.5164C170.221 44.9911 167.536 44.2285 163.689 44.2285C159.18 44.2285 155.765 45.7537 153.444 48.8042C151.189 51.7884 150.061 54.8389 150.061 57.9558C150.26 60.0779 151.189 61.8021 152.847 63.1284Z" fill="black"/>
<path d="M25.5172 147.979C21.6709 147.979 17.7914 147.647 13.8788 146.984C9.96622 146.387 6.6836 145.26 4.03099 143.602C1.37837 141.944 0.052063 139.59 0.052063 136.54C0.052063 136.274 0.052063 136.042 0.052063 135.843C0.118378 135.578 0.184694 135.28 0.251009 134.948C0.980478 133.489 1.84258 132.262 2.83731 131.267C3.89836 130.273 5.68887 129.51 8.20886 128.98C10.7952 128.449 14.7409 128.184 20.0462 128.184C24.1577 120.558 27.9377 113.495 31.3861 106.996C34.8345 100.431 37.9182 94.3961 40.6371 88.8919C43.356 83.3877 45.8097 78.3809 47.9981 73.8715C50.2528 69.362 52.3086 65.3499 54.1654 61.8352C57.8791 54.6731 60.9628 49.4342 63.4164 46.1185C65.9364 42.7364 68.3569 41.0453 70.678 41.0453C72.8664 41.0453 74.7895 41.6753 76.4474 42.9353C78.1053 44.1953 78.9342 45.7869 78.9342 47.71C78.4037 48.3732 78.1053 49.0695 78.039 49.799C77.9727 50.4621 77.9395 51.2248 77.9395 52.0869C89.611 47.3785 98.4641 42.438 104.499 37.2654C110.6 32.0264 113.65 27.4838 113.65 23.6375C113.65 21.9797 112.158 20.3549 109.174 18.7634C106.19 17.1718 102.244 16.376 97.3368 16.376C90.0421 16.376 83.2779 17.2713 77.0442 19.0618C70.8106 20.786 65.1406 22.9081 60.0343 25.4281C54.9281 27.948 50.4186 30.6007 46.506 33.3859C42.5934 36.1048 39.3108 38.4922 36.6582 40.548C33.4087 43.0016 30.7893 45.3227 28.7998 47.5111C26.8103 49.6995 23.9588 50.7937 20.2451 50.7937C14.343 50.7937 11.392 48.2737 11.392 43.2337C11.392 38.9896 13.8457 34.3806 18.753 29.407C23.6603 24.367 30.1261 19.6918 38.1503 15.3813C46.1081 11.1371 55.0938 7.62237 65.1075 4.83713C75.1874 1.98557 85.201 0.559784 95.1483 0.559784C108.876 0.559784 118.956 2.64872 125.388 6.82659C131.821 11.0045 135.037 16.3428 135.037 22.8418C135.037 29.2744 130.959 36.0385 122.802 43.1343C118.823 46.5827 113.982 49.8984 108.279 53.0816C102.642 56.1984 96.2757 59.05 89.18 61.6363C96.2094 63.9573 101.946 66.411 106.389 68.9973C110.832 71.5173 114.28 74.1367 116.734 76.8557C119.254 79.6409 120.912 82.5256 121.708 85.5098C122.57 88.4277 123.001 91.4451 123.001 94.5619C123.001 101.193 120.381 107.725 115.142 114.158C109.904 120.524 102.476 126.327 92.8605 131.566C83.311 136.805 72.6674 140.85 60.9296 143.702C49.1918 146.553 37.3876 147.979 25.5172 147.979ZM43.9197 127.985C51.6123 127.322 58.7744 125.995 65.4059 124.006C72.1037 121.95 77.9395 119.43 82.9132 116.446C87.8205 113.462 91.6668 110.113 94.452 106.399C97.3036 102.686 98.7294 98.7729 98.7294 94.6613C98.7294 90.9477 96.8725 86.9024 93.1589 82.5256C89.4452 78.1488 82.5484 74.3357 72.4685 71.0862C67.4285 82.4925 62.6206 92.5061 58.0449 101.127C53.5354 109.748 48.827 118.701 43.9197 127.985Z" fill="black"/>
</svg>
