<svg width="16" height="16" viewBox="0 0 16 16" fill="none" xmlns="http://www.w3.org/2000/svg">
<rect width="16" height="16" fill="#EFCB47"/>
<path d="M4.88651 13.9212C4.60157 13.9212 4.31417 13.8966 4.02432 13.8475C3.73446 13.8032 3.49128 13.7197 3.29477 13.5969C3.09826 13.4741 3 13.2997 3 13.0737C3 13.054 3 13.0368 3 13.0221C3.00491 13.0025 3.00983 12.9804 3.01474 12.9558C3.06878 12.8477 3.13265 12.7568 3.20634 12.6831C3.28494 12.6094 3.41759 12.5529 3.60427 12.5136C3.79587 12.4743 4.08818 12.4547 4.48121 12.4547C4.7858 11.8897 5.06583 11.3665 5.3213 10.885C5.57676 10.3987 5.80521 9.95161 6.00663 9.54385C6.20806 9.13609 6.38983 8.76517 6.55195 8.4311C6.71899 8.09703 6.87128 7.7998 7.00884 7.53943C7.28396 7.00884 7.51241 6.62073 7.69418 6.37509C7.88086 6.12454 8.06018 5.99926 8.23213 5.99926C8.39425 5.99926 8.53672 6.04594 8.65954 6.13928C8.78236 6.23262 8.84377 6.35053 8.84377 6.493C8.80447 6.54213 8.78236 6.59371 8.77745 6.64775C8.77254 6.69688 8.77008 6.75338 8.77008 6.81724C9.63473 6.46844 10.2906 6.10243 10.7377 5.71923C11.1896 5.33112 11.4156 4.9946 11.4156 4.70965C11.4156 4.58683 11.3051 4.46647 11.084 4.34856C10.8629 4.23066 10.5706 4.1717 10.2071 4.1717C9.66667 4.1717 9.16556 4.23803 8.70376 4.37067C8.24196 4.4984 7.82191 4.65561 7.44363 4.8423C7.06534 5.02899 6.73127 5.2255 6.44142 5.43184C6.15156 5.63326 5.90838 5.81012 5.71186 5.96242C5.47114 6.14419 5.27708 6.31614 5.1297 6.47826C4.98231 6.64038 4.77106 6.72144 4.49595 6.72144C4.05871 6.72144 3.84009 6.53476 3.84009 6.16139C3.84009 5.84697 4.02186 5.50553 4.38541 5.13707C4.74896 4.76369 5.22795 4.41734 5.8224 4.09801C6.41194 3.78359 7.07762 3.52321 7.81945 3.31688C8.5662 3.10563 9.30803 3 10.045 3C11.0619 3 11.8086 3.15475 12.2852 3.46426C12.7617 3.77377 13 4.16925 13 4.6507C13 5.12724 12.6979 5.62835 12.0936 6.15402C11.7988 6.40948 11.4402 6.65512 11.0177 6.89094C10.6001 7.12184 10.1285 7.33309 9.6028 7.52469C10.1236 7.69664 10.5485 7.87841 10.8777 8.07001C11.2068 8.25669 11.4623 8.45075 11.6441 8.65217C11.8308 8.85851 11.9536 9.07222 12.0125 9.29329C12.0764 9.50946 12.1083 9.73299 12.1083 9.96389C12.1083 10.4552 11.9143 10.9391 11.5262 11.4156C11.138 11.8873 10.5878 12.3171 9.87546 12.7052C9.16802 13.0933 8.37951 13.393 7.50995 13.6043C6.64038 13.8155 5.76591 13.9212 4.88651 13.9212ZM6.24982 12.4399C6.8197 12.3908 7.35028 12.2926 7.84156 12.1452C8.33776 11.9929 8.77008 11.8062 9.13854 11.5851C9.50209 11.364 9.78703 11.1159 9.99337 10.8408C10.2046 10.5657 10.3102 10.2759 10.3102 9.97126C10.3102 9.69614 10.1727 9.39646 9.89757 9.07222C9.62245 8.74797 9.11152 8.46549 8.36478 8.22476C7.9914 9.06976 7.63522 9.8116 7.29624 10.4503C6.96217 11.0889 6.61336 11.7522 6.24982 12.4399Z" fill="black"/>
</svg>
